/* XPM */
static char * addedge_xpm[] = {
"15 15 31 1",
" 	c None",
".	c #414141",
"+	c #3C3C3C",
"@	c #353535",
"#	c #828282",
"$	c #777777",
"%	c #737373",
"&	c #8E8E8E",
"*	c #343434",
"=	c #383838",
"-	c #4D4D4D",
";	c #5E5E5E",
">	c #A0A0A0",
",	c #9F9F9F",
"'	c #545454",
")	c #4A4A4A",
"!	c #ACACAC",
"~	c #929292",
"{	c #676767",
"]	c #424242",
"^	c #7F7F7F",
"/	c #3F3F3F",
"(	c #464646",
"_	c #6A6A6A",
":	c #909090",
"<	c #A8A8A8",
"[	c #4E4E4E",
"}	c #5C5C5C",
"|	c #A4A4A4",
"1	c #373737",
"2	c #999999",
"   ..       +@#",
"   ..      $@. ",
"   ..      .@% ",
"........  &*=  ",
"........  -*;  ",
"   ..    >@@,  ",
"   ..    '*)   ",
"   ..   !@@~   ",
"        {*]    ",
"        +*^    ",
"       ^@/     ",
"       (*_     ",
"      :@=<     ",
"      [*}      ",
"     |112      "};
