/* XPM */
static char * addnode_xpm[] = {
"15 15 256 2",
"  	c #FEE6E6",
". 	c #FFE6E6",
"+ 	c #FCE6E6",
"@ 	c #FDE6E6",
"# 	c #FBE6E6",
"$ 	c #C0C0C0",
"% 	c #B5A8A8",
"& 	c #ADA8A8",
"* 	c #ADA9A9",
"= 	c #ACA9A9",
"- 	c #ABA9A9",
"; 	c #ACA8A8",
"> 	c #BA7878",
", 	c #B97878",
"' 	c #A17878",
") 	c #927878",
"! 	c #8C7878",
"~ 	c #CA3C3C",
"{ 	c #CA3B3B",
"] 	c #AF3C3C",
"^ 	c #AF3B3B",
"/ 	c #843C3C",
"( 	c #D92424",
"_ 	c #7A3C3C",
": 	c #A22424",
"< 	c #8D2424",
"[ 	c #E40C0C",
"} 	c #D60C0C",
"| 	c #FE0000",
"1 	c #FB0000",
"2 	c #FC0000",
"3 	c #F60000",
"4 	c #F50000",
"5 	c #F80000",
"6 	c #732424",
"7 	c #C60C0C",
"8 	c #F00000",
"9 	c #EB0000",
"0 	c #E70000",
"a 	c #EA0000",
"b 	c #E90000",
"c 	c #E40000",
"d 	c #D90000",
"e 	c #DA0000",
"f 	c #DB0000",
"g 	c #D20000",
"h 	c #D30000",
"i 	c #CC0000",
"j 	c #9B0C0C",
"k 	c #C80000",
"l 	c #C60000",
"m 	c #C40000",
"n 	c #BE0000",
"o 	c #BB0000",
"p 	c #B40000",
"q 	c #B30000",
"r 	c #AE0000",
"s 	c #AC0000",
"t 	c #AA0000",
"u 	c #7D0C0C",
"v 	c #7E0C0C",
"w 	c #A70000",
"x 	c #A60000",
"y 	c #780C0C",
"z 	c #9D0000",
"A 	c #700C0C",
"B 	c #980000",
"C 	c #920000",
"D 	c #940000",
"E 	c #8E0000",
"F 	c #890000",
"G 	c #870000",
"H 	c #860000",
"I 	c #7F0000",
"J 	c #7B0000",
"K 	c #760000",
"L 	c #7A0000",
"M 	c #000000",
"N 	c #000000",
"O 	c #000000",
"P 	c #000000",
"Q 	c #000000",
"R 	c #000000",
"S 	c #000000",
"T 	c #000000",
"U 	c #000000",
"V 	c #000000",
"W 	c #000000",
"X 	c #000000",
"Y 	c #000000",
"Z 	c #000000",
"` 	c #000000",
" .	c #000000",
"..	c #000000",
"+.	c #000000",
"@.	c #000000",
"#.	c #000000",
"$.	c #000000",
"%.	c #000000",
"&.	c #000000",
"*.	c #000000",
"=.	c #000000",
"-.	c #000000",
";.	c #000000",
">.	c #000000",
",.	c #000000",
"'.	c #000000",
").	c #000000",
"!.	c #000000",
"~.	c #000000",
"{.	c #000000",
"].	c #000000",
"^.	c #000000",
"/.	c #000000",
"(.	c #000000",
"_.	c #000000",
":.	c #000000",
"<.	c #000000",
"[.	c #000000",
"}.	c #000000",
"|.	c #000000",
"1.	c #000000",
"2.	c #000000",
"3.	c #000000",
"4.	c #000000",
"5.	c #000000",
"6.	c #000000",
"7.	c #000000",
"8.	c #000000",
"9.	c #000000",
"0.	c #000000",
"a.	c #000000",
"b.	c #000000",
"c.	c #000000",
"d.	c #000000",
"e.	c #000000",
"f.	c #000000",
"g.	c #000000",
"h.	c #000000",
"i.	c #000000",
"j.	c #000000",
"k.	c #000000",
"l.	c #000000",
"m.	c #000000",
"n.	c #000000",
"o.	c #000000",
"p.	c #000000",
"q.	c #000000",
"r.	c #000000",
"s.	c #000000",
"t.	c #000000",
"u.	c #000000",
"v.	c #000000",
"w.	c #000000",
"x.	c #000000",
"y.	c #000000",
"z.	c #000000",
"A.	c #000000",
"B.	c #000000",
"C.	c #000000",
"D.	c #000000",
"E.	c #000000",
"F.	c #000000",
"G.	c #000000",
"H.	c #000000",
"I.	c #000000",
"J.	c #000000",
"K.	c #000000",
"L.	c #000000",
"M.	c #000000",
"N.	c #000000",
"O.	c #000000",
"P.	c #000000",
"Q.	c #000000",
"R.	c #000000",
"S.	c #000000",
"T.	c #000000",
"U.	c #000000",
"V.	c #000000",
"W.	c #000000",
"X.	c #000000",
"Y.	c #000000",
"Z.	c #000000",
"`.	c #000000",
" +	c #000000",
".+	c #000000",
"++	c #000000",
"@+	c #000000",
"#+	c #000000",
"$+	c #000000",
"%+	c #000000",
"&+	c #000000",
"*+	c #000000",
"=+	c #000000",
"-+	c #000000",
";+	c #000000",
">+	c #000000",
",+	c #000000",
"'+	c #000000",
")+	c #000000",
"!+	c #000000",
"~+	c #000000",
"{+	c #000000",
"]+	c #000000",
"^+	c #000000",
"/+	c #000000",
"(+	c #000000",
"_+	c #000000",
":+	c #000000",
"<+	c #000000",
"[+	c #000000",
"}+	c #000000",
"|+	c #000000",
"1+	c #000000",
"2+	c #000000",
"3+	c #000000",
"4+	c #000000",
"5+	c #000000",
"6+	c #000000",
"7+	c #000000",
"8+	c #000000",
"9+	c #000000",
"0+	c #000000",
"a+	c #000000",
"b+	c #000000",
"c+	c #000000",
"d+	c #000000",
"e+	c #000000",
"f+	c #000000",
"g+	c #000000",
"h+	c #000000",
"i+	c #000000",
"j+	c #000000",
"k+	c #000000",
"l+	c #000000",
"m+	c #000000",
"n+	c #000000",
"o+	c #000000",
"p+	c #000000",
"q+	c #000000",
"r+	c #000000",
"s+	c #000000",
"t+	c #000000",
"u+	c #000000",
"v+	c #000000",
"w+	c #000000",
"x+	c #000000",
"y+	c #000000",
"z+	c #000000",
"A+	c #000000",
"B+	c #000000",
"C+	c #000000",
"D+	c #000000",
"E+	c #000000",
"F+	c #000000",
"G+	c #000000",
"$ $ $ $ > { } h 7 ^ ' $ $ $ $ ",
"$ $ % ( b b b b e i o : & $ $ ",
"$ % [ 8 8 8 8 8 0 e k q j ; $ ",
"$ ( 8 5 5 5 . . 8 c g n x < $ ",
", b 4 4 | | . . 4 b d m s C ) ",
"~ a 4 4 | | . . 4 a f l r D / ",
"} b 4 . . . . . . . . m s C u ",
"g c 8   . . . . . . . n x E L ",
"7 e 0 8 8 8     0 e k q z G y ",
"] i d c c c @ @ d i o w C I _ ",
"' o k h h f # # k o t B H K ! ",
"$ : p n n l l n p w B F L 6 $ ",
"$ * j x x r r x z C H L A - $ ",
"$ $ = < C C C C G I K 6 - $ $ ",
"$ $ $ $ ) / v J y _ ! $ $ $ $ "};
