/* XPM */
static char * all_xpm[] = {
"15 15 256 2",
"  	c #C0C0C0",
". 	c #BEBEBE",
"+ 	c #BCBCBC",
"@ 	c #B7B7B7",
"# 	c #B1B1B1",
"$ 	c #B0B0B0",
"% 	c #ABABAB",
"& 	c #A6A6A6",
"* 	c #A3A3A3",
"= 	c #999999",
"- 	c #949494",
"; 	c #8D8D8D",
"> 	c #8C8C8C",
", 	c #868686",
"' 	c #858585",
") 	c #838383",
"! 	c #828282",
"~ 	c #7E7E7E",
"{ 	c #7A7A7A",
"] 	c #787876",
"^ 	c #777777",
"/ 	c #757575",
"( 	c #747474",
"_ 	c #737373",
": 	c #727272",
"< 	c #707070",
"[ 	c #6D6D6D",
"} 	c #6A6A6A",
"| 	c #696969",
"1 	c #686868",
"2 	c #656565",
"3 	c #646464",
"4 	c #636363",
"5 	c #606060",
"6 	c #5E5E5E",
"7 	c #5D5D5D",
"8 	c #5A5A5A",
"9 	c #595959",
"0 	c #585858",
"a 	c #545454",
"b 	c #535353",
"c 	c #4F4F4F",
"d 	c #4E4E4E",
"e 	c #4D4D4D",
"f 	c #4C4C4C",
"g 	c #4A4A4A",
"h 	c #494949",
"i 	c #484848",
"j 	c #474747",
"k 	c #454545",
"l 	c #444444",
"m 	c #434343",
"n 	c #424242",
"o 	c #414141",
"p 	c #3F3F3F",
"q 	c #3E3E3E",
"r 	c #3D3D3D",
"s 	c #3C3C3C",
"t 	c #3B3B3B",
"u 	c #3A3A3A",
"v 	c #393939",
"w 	c #383838",
"x 	c #373737",
"y 	c #363636",
"z 	c #353535",
"A 	c #343434",
"B 	c #333333",
"C 	c #313131",
"D 	c #2F2F2F",
"E 	c #2E2E2E",
"F 	c #2D2D2D",
"G 	c #2C2C2C",
"H 	c #2B2B2B",
"I 	c #2A2A2A",
"J 	c #292929",
"K 	c #282828",
"L 	c #272727",
"M 	c #262626",
"N 	c #222222",
"O 	c #000000",
"P 	c #000000",
"Q 	c #000000",
"R 	c #000000",
"S 	c #000000",
"T 	c #000000",
"U 	c #000000",
"V 	c #000000",
"W 	c #000000",
"X 	c #000000",
"Y 	c #000000",
"Z 	c #000000",
"` 	c #000000",
" .	c #000000",
"..	c #000000",
"+.	c #000000",
"@.	c #000000",
"#.	c #000000",
"$.	c #000000",
"%.	c #000000",
"&.	c #000000",
"*.	c #000000",
"=.	c #000000",
"-.	c #000000",
";.	c #000000",
">.	c #000000",
",.	c #000000",
"'.	c #000000",
").	c #000000",
"!.	c #000000",
"~.	c #000000",
"{.	c #000000",
"].	c #000000",
"^.	c #000000",
"/.	c #000000",
"(.	c #000000",
"_.	c #000000",
":.	c #000000",
"<.	c #000000",
"[.	c #000000",
"}.	c #000000",
"|.	c #000000",
"1.	c #000000",
"2.	c #000000",
"3.	c #000000",
"4.	c #000000",
"5.	c #000000",
"6.	c #000000",
"7.	c #000000",
"8.	c #000000",
"9.	c #000000",
"0.	c #000000",
"a.	c #000000",
"b.	c #000000",
"c.	c #000000",
"d.	c #000000",
"e.	c #000000",
"f.	c #000000",
"g.	c #000000",
"h.	c #000000",
"i.	c #000000",
"j.	c #000000",
"k.	c #000000",
"l.	c #000000",
"m.	c #000000",
"n.	c #000000",
"o.	c #000000",
"p.	c #000000",
"q.	c #000000",
"r.	c #000000",
"s.	c #000000",
"t.	c #000000",
"u.	c #000000",
"v.	c #000000",
"w.	c #000000",
"x.	c #000000",
"y.	c #000000",
"z.	c #000000",
"A.	c #000000",
"B.	c #000000",
"C.	c #000000",
"D.	c #000000",
"E.	c #000000",
"F.	c #000000",
"G.	c #000000",
"H.	c #000000",
"I.	c #000000",
"J.	c #000000",
"K.	c #000000",
"L.	c #000000",
"M.	c #000000",
"N.	c #000000",
"O.	c #000000",
"P.	c #000000",
"Q.	c #000000",
"R.	c #000000",
"S.	c #000000",
"T.	c #000000",
"U.	c #000000",
"V.	c #000000",
"W.	c #000000",
"X.	c #000000",
"Y.	c #000000",
"Z.	c #000000",
"`.	c #000000",
" +	c #000000",
".+	c #000000",
"++	c #000000",
"@+	c #000000",
"#+	c #000000",
"$+	c #000000",
"%+	c #000000",
"&+	c #000000",
"*+	c #000000",
"=+	c #000000",
"-+	c #000000",
";+	c #000000",
">+	c #000000",
",+	c #000000",
"'+	c #000000",
")+	c #000000",
"!+	c #000000",
"~+	c #000000",
"{+	c #000000",
"]+	c #000000",
"^+	c #000000",
"/+	c #000000",
"(+	c #000000",
"_+	c #000000",
":+	c #000000",
"<+	c #000000",
"[+	c #000000",
"}+	c #000000",
"|+	c #000000",
"1+	c #000000",
"2+	c #000000",
"3+	c #000000",
"4+	c #000000",
"5+	c #000000",
"6+	c #000000",
"7+	c #000000",
"8+	c #000000",
"9+	c #000000",
"0+	c #000000",
"a+	c #000000",
"b+	c #000000",
"c+	c #000000",
"d+	c #000000",
"e+	c #000000",
"f+	c #000000",
"g+	c #000000",
"h+	c #000000",
"i+	c #000000",
"j+	c #000000",
"k+	c #000000",
"l+	c #000000",
"m+	c #000000",
"n+	c #000000",
"o+	c #000000",
"p+	c #000000",
"q+	c #000000",
"r+	c #000000",
"s+	c #000000",
"t+	c #000000",
"u+	c #000000",
"v+	c #000000",
"w+	c #000000",
"x+	c #000000",
"y+	c #000000",
"z+	c #000000",
"A+	c #000000",
"B+	c #000000",
"C+	c #000000",
"D+	c #000000",
"E+	c #000000",
"F+	c #000000",
"G+	c #000000",
"            $ ; | 4 ] v A A A ",
"+ & ) 3 e s z z G z p B B B s ",
"C G G D D D D z q u i ) t z , ",
"H M M E K K K k 1 v 4 _ z n @ ",
"B a I M C I M M J ( 2 r z ^   ",
"A l 7 y : o I M p # ~ A v $   ",
"q z 2 ' / < H M c + h A 7     ",
"! z z / D v d u 0 = z z *     ",
"+ 8 A v H M [ k { a A f . . . ",
". % u B m F C ( 9 z z -       ",
"    , y y n N 2 b B o         ",
"      5 A o i ! r A 6         ",
"      % k c } { z q g         ",
"        > a j r A }           ",
"        + 2 B B w %           "};
