/* XPM */
static char * all_xpm[] = {
"15 15 74 1",
" 	c None",
".	c #8D8D8D",
"+	c #696969",
"@	c #636363",
"#	c #787876",
"$	c #393939",
"%	c #343434",
"&	c #A6A6A6",
"*	c #838383",
"=	c #646464",
"-	c #4D4D4D",
";	c #3C3C3C",
">	c #353535",
",	c #2C2C2C",
"'	c #3F3F3F",
")	c #333333",
"!	c #313131",
"~	c #2F2F2F",
"{	c #3E3E3E",
"]	c #3A3A3A",
"^	c #484848",
"/	c #3B3B3B",
"(	c #868686",
"_	c #2B2B2B",
":	c #262626",
"<	c #2E2E2E",
"[	c #282828",
"}	c #454545",
"|	c #686868",
"1	c #737373",
"2	c #424242",
"3	c #545454",
"4	c #2A2A2A",
"5	c #292929",
"6	c #747474",
"7	c #656565",
"8	c #3D3D3D",
"9	c #777777",
"0	c #444444",
"a	c #5D5D5D",
"b	c #363636",
"c	c #727272",
"d	c #414141",
"e	c #B1B1B1",
"f	c #7E7E7E",
"g	c #858585",
"h	c #757575",
"i	c #707070",
"j	c #4F4F4F",
"k	c #BCBCBC",
"l	c #494949",
"m	c #828282",
"n	c #4E4E4E",
"o	c #585858",
"p	c #999999",
"q	c #A3A3A3",
"r	c #5A5A5A",
"s	c #6D6D6D",
"t	c #7A7A7A",
"u	c #4C4C4C",
"v	c #ABABAB",
"w	c #434343",
"x	c #2D2D2D",
"y	c #595959",
"z	c #949494",
"A	c #222222",
"B	c #535353",
"C	c #606060",
"D	c #5E5E5E",
"E	c #6A6A6A",
"F	c #4A4A4A",
"G	c #8C8C8C",
"H	c #474747",
"I	c #383838",
"       .+@#$%%%",
" &*=-;>>,>')));",
"!,,~~~~>{]^*/>(",
"_::<[[[}|$@1>2 ",
")34:!4::5678>9 ",
"%0abcd4:'ef%$  ",
"{>7ghi_:jkl%a  ",
"m>>h~$n]op>>q  ",
" r%$_:s}t3%u   ",
" v])wx!6y>>z   ",
"  (bb2A7B)d    ",
"   C%d^m8%D    ",
"   v}jEt>{F    ",
"    G3H8%E     ",
"     7))Iv     "};
