/* XPM */
static char * building_xpm[] = {
"15 15 200 2",
"  	c None",
". 	c #C0C0C0",
"+ 	c #BCBBBC",
"@ 	c #B7B6B7",
"# 	c #B2B0B1",
"$ 	c #ADABAB",
"% 	c #A9A6A6",
"& 	c #A19E9F",
"* 	c #A4A2A3",
"= 	c #9E9B9B",
"- 	c #959191",
"; 	c #898787",
"> 	c #B2B2B2",
", 	c #989695",
"' 	c #969392",
") 	c #9C9A99",
"! 	c #A7A5A3",
"~ 	c #999794",
"{ 	c #636261",
"] 	c #6A6767",
"^ 	c #787676",
"/ 	c #8A8989",
"( 	c #D5D5CD",
"_ 	c #DCDCD6",
": 	c #CECDC5",
"< 	c #CFCECB",
"[ 	c #D2D0C6",
"} 	c #DEDBCE",
"| 	c #D8D3CB",
"1 	c #CFC6B9",
"2 	c #EDEEE4",
"3 	c #F5F6EF",
"4 	c #C7C7BD",
"5 	c #8B8C87",
"6 	c #808380",
"7 	c #7F7E7A",
"8 	c #EEEFE8",
"9 	c #F3F3EE",
"0 	c #B5B4AC",
"a 	c #6D7B7B",
"b 	c #A2ADB0",
"c 	c #BDB7A2",
"d 	c #A19C89",
"e 	c #A08571",
"f 	c #EFF0E9",
"g 	c #C6C5BD",
"h 	c #878A88",
"i 	c #687E8B",
"j 	c #828B89",
"k 	c #A4A29B",
"l 	c #E9EBE2",
"m 	c #F0F1E9",
"n 	c #B9BCB3",
"o 	c #779589",
"p 	c #A6BDB4",
"q 	c #A8A79F",
"r 	c #B8C0AF",
"s 	c #B7AE9D",
"t 	c #EBEAE1",
"u 	c #EFF1E8",
"v 	c #C7C8BD",
"w 	c #8F918E",
"x 	c #99A8BA",
"y 	c #8F989A",
"z 	c #9B9A91",
"A 	c #E6E7DE",
"B 	c #EDEFE3",
"C 	c #BBBDB5",
"D 	c #7D928D",
"E 	c #A0AEAF",
"F 	c #9EA1A7",
"G 	c #D1D4DA",
"H 	c #C8BDBD",
"I 	c #E5E4DA",
"J 	c #ECEFE3",
"K 	c #C9CBC0",
"L 	c #8C8D8A",
"M 	c #7F8692",
"N 	c #818485",
"O 	c #96968F",
"P 	c #F5F6F1",
"Q 	c #D7D7D0",
"R 	c #D5D2CF",
"S 	c #D3D1C9",
"T 	c #D9D7CF",
"U 	c #CFCEC8",
"V 	c #ECEDE8",
"W 	c #F4F5F1",
"X 	c #C9CAC1",
"Y 	c #91928E",
"Z 	c #949591",
"` 	c #D6D8D4",
" .	c #D8D6D0",
"..	c #D1CABF",
"+.	c #E7E4DD",
"@.	c #E2D6C9",
"#.	c #DEDCD3",
"$.	c #E4E6E1",
"%.	c #D9D3C9",
"&.	c #DEE0DB",
"*.	c #E9E8E4",
"=.	c #C9C5BC",
"-.	c #84807B",
";.	c #7E726A",
">.	c #6D594E",
",.	c #654C40",
"'.	c #92634D",
").	c #8E5D46",
"!.	c #794F40",
"~.	c #7D6051",
"{.	c #976850",
"].	c #8F6652",
"^.	c #986249",
"/.	c #936B57",
"(.	c #926853",
"_.	c #8C5F4A",
":.	c #5A3E30",
"<.	c #4A3934",
"[.	c #61534E",
"}.	c #6A4939",
"|.	c #8A6D5E",
"1.	c #AC6D54",
"2.	c #B79EB1",
"3.	c #B3A7B1",
"4.	c #C7A1A0",
"5.	c #B08D8E",
"6.	c #A27162",
"7.	c #956A56",
"8.	c #966752",
"9.	c #9A6044",
"0.	c #5E4438",
"a.	c #4F6474",
"b.	c #5F6767",
"c.	c #714A37",
"d.	c #93624B",
"e.	c #9A654B",
"f.	c #AF7257",
"g.	c #C9B5B8",
"h.	c #CCC1C6",
"i.	c #BBA1A4",
"j.	c #B0A5A3",
"k.	c #977565",
"l.	c #8C6D5E",
"m.	c #95725F",
"n.	c #A65E3D",
"o.	c #5F4134",
"p.	c #656A74",
"q.	c #676968",
"r.	c #6F5243",
"s.	c #8A6755",
"t.	c #9B6D55",
"u.	c #B07255",
"v.	c #AD9E98",
"w.	c #D3C1B2",
"x.	c #DFBFAF",
"y.	c #C8B59D",
"z.	c #B59686",
"A.	c #9A5C42",
"B.	c #A56242",
"C.	c #9C654A",
"D.	c #614233",
"E.	c #656870",
"F.	c #6C6E73",
"G.	c #674A3D",
"H.	c #816155",
"I.	c #896655",
"J.	c #A3664C",
"K.	c #A4A3A2",
"L.	c #C8D1C1",
"M.	c #D0C3B7",
"N.	c #C2C0B9",
"O.	c #988A83",
"P.	c #7E6E68",
"Q.	c #977B6A",
"R.	c #AC6541",
"S.	c #574035",
"T.	c #5D646D",
"U.	c #6D686B",
"V.	c #6A5548",
"W.	c #987265",
"X.	c #926F61",
"Y.	c #8F7164",
"Z.	c #9E9B98",
"`.	c #B2B6AC",
" +	c #A9A7A2",
".+	c #A7A9AE",
"++	c #807E77",
"@+	c #835342",
"#+	c #8B5740",
"$+	c #573E33",
"%+	c #706665",
"&+	c #9A928F",
"*+	c #B7B8B7",
"=+	c #B1AEAD",
"-+	c #AEA6A6",
";+	c #A8928B",
">+	c #9E877D",
",+	c #93766B",
"'+	c #76665F",
")+	c #AFA8A4",
". . + @ # $ % & * = - ; >     ",
", , , ' ' ' ) ) ) ! ~ { ] ^ / ",
"( _ : < [ } | 1 2 3 4 5 6 6 7 ",
"8 9 0 a b c d e f f g h i j k ",
"l m n o p q r s t u v w x y z ",
"A B C D E F G H I J K L M N O ",
"P P Q R S T T U V W X Y Y Z Z ",
"`  ...+.@.#.$.%.&.*.=.-.;.>.,.",
"'.).).!.~.{.].^./.(._.:.<.[.}.",
"|.|.1.2.3.4.5.6.7.8.9.0.a.b.c.",
"d.e.f.g.h.i.j.k.l.m.n.o.p.q.r.",
"s.t.u.v.w.x.y.z.A.B.C.D.E.F.G.",
"H.I.J.K.L.M.N.O.P.Q.R.S.T.U.V.",
"W.X.Y.Z.`. +.+++@+@+#+$+%+&+  ",
"          *+=+-+;+>+,+'+)+    "};
