/* XPM */
static char * cell_xpm[] = {
"15 15 56 1",
" 	g #C0C0C0",
".	g #B3B3B3",
"+	g #AAAAAA",
"@	g #939393",
"#	g #484848",
"$	g #3A3A3A",
"%	g #373737",
"&	g #343434",
"*	g #797979",
"=	g #B8B8B8",
"-	g #404040",
";	g #333333",
">	g #595959",
",	g #848484",
"'	g #353535",
")	g #919191",
"!	g #A3A3A3",
"~	g #ACACAC",
"{	g #BABABA",
"]	g #4D4D4D",
"^	g #666666",
"/	g #B9B9B9",
"(	g #4A4A4A",
"_	g #616161",
":	g #434343",
"<	g #787878",
"[	g #8E8E8E",
"}	g #A5A5A5",
"|	g #3C3C3C",
"1	g #8B8B8B",
"2	g #515151",
"3	g #363636",
"4	g #A0A0A0",
"5	g #8D8D8D",
"6	g #949494",
"7	g #8A8A8A",
"8	g #AFAFAF",
"9	g #5F5F5F",
"0	g #545454",
"a	g #9D9D9D",
"b	g #BEBEBE",
"c	g #999999",
"d	g #393939",
"e	g #A7A7A7",
"f	g #B1B1B1",
"g	g #3E3E3E",
"h	g #9A9A9A",
"i	g #4B4B4B",
"j	g #6E6E6E",
"k	g #474747",
"l	g #3F3F3F",
"m	g #4F4F4F",
"n	g #717171",
"o	g #3B3B3B",
"p	g #A8A8A8",
"q	g #9E9E9E",
"          .+.  ",
"   @#$$%%&&&%* ",
"  =-;&&&&&&&&> ",
"  ,'$)!~{  ]&^ ",
" /(&_      :&< ",
" ['$}      |&1 ",
" 2&>       334 ",
"5''6       &&= ",
"<;;#7{    8&&  ",
"}9$&&0abbbc&d  ",
"  e9d&&9f ,&g  ",
"    hi&&|<j&k  ",
"      ,l&&d&m  ",
"       .no&&^  ",
"         p_mq  "};
