/* XPM */
static char * cell_xpm[] = {
"15 15 49 1",
" 	c None",
".	c #AAAAAA",
"+	c #939393",
"@	c #484848",
"#	c #3A3A3A",
"$	c #373737",
"%	c #343434",
"&	c #797979",
"*	c #404040",
"=	c #333333",
"-	c #595959",
";	c #848484",
">	c #353535",
",	c #919191",
"'	c #A3A3A3",
")	c #ACACAC",
"!	c #4D4D4D",
"~	c #666666",
"{	c #4A4A4A",
"]	c #616161",
"^	c #434343",
"/	c #787878",
"(	c #8E8E8E",
"_	c #A5A5A5",
":	c #3C3C3C",
"<	c #8B8B8B",
"[	c #515151",
"}	c #363636",
"|	c #A0A0A0",
"1	c #8D8D8D",
"2	c #949494",
"3	c #8A8A8A",
"4	c #5F5F5F",
"5	c #545454",
"6	c #9D9D9D",
"7	c #999999",
"8	c #393939",
"9	c #A7A7A7",
"0	c #3E3E3E",
"a	c #9A9A9A",
"b	c #4B4B4B",
"c	c #6E6E6E",
"d	c #474747",
"e	c #3F3F3F",
"f	c #4F4F4F",
"g	c #717171",
"h	c #3B3B3B",
"i	c #A8A8A8",
"j	c #9E9E9E",
"           .   ",
"   +@##$$%%%$& ",
"   *=%%%%%%%%- ",
"  ;>#,')   !%~ ",
"  {%]      ^%/ ",
" (>#_      :%< ",
" [%-       }}| ",
"1>>2       %%  ",
"/==@3      %%  ",
"_4#%%56   7%8  ",
"  948%%4  ;%0  ",
"    ab%%:/c%d  ",
"      ;e%%8%f  ",
"        gh%%~  ",
"         i]fj  "};
