/* XPM */
static char * deledge_xpm[] = {
"15 15 39 1",
" 	g #C0C0C0",
".	g #AFAFAF",
"+	g #3C3C3C",
"@	g #353535",
"#	g #828282",
"$	g #777777",
"%	g #414141",
"&	g #B5B5B5",
"*	g #BABABA",
"=	g #737373",
"-	g #8E8E8E",
";	g #343434",
">	g #383838",
",	g #AEAEAE",
"'	g #4D4D4D",
")	g #5E5E5E",
"!	g #A0A0A0",
"~	g #9F9F9F",
"{	g #545454",
"]	g #4A4A4A",
"^	g #BDBDBD",
"/	g #ACACAC",
"(	g #929292",
"_	g #676767",
":	g #424242",
"<	g #B3B3B3",
"[	g #7F7F7F",
"}	g #3F3F3F",
"|	g #B4B4B4",
"1	g #BBBBBB",
"2	g #464646",
"3	g #6A6A6A",
"4	g #909090",
"5	g #A8A8A8",
"6	g #4E4E4E",
"7	g #5C5C5C",
"8	g #A4A4A4",
"9	g #373737",
"0	g #999999",
"           .+@#",
"           $@%&",
"          *%@= ",
"%%%%%%%%  -;>, ",
"%%%%%%%%  ';)  ",
"         !@@~  ",
"         {;]^  ",
"        /@@(   ",
"        _;:    ",
"       <+;[    ",
"       [@}|    ",
"      12;3     ",
"      4@>5     ",
"      6;7      ",
"     8990      "};
