/* XPM */
static char * delnode_xpm[] = {
"15 15 69 1",
" 	c None",
".	c #BA7878",
"+	c #CA3B3B",
"@	c #D60C0C",
"#	c #D30000",
"$	c #C60C0C",
"%	c #AF3B3B",
"&	c #A17878",
"*	c #B5A8A8",
"=	c #D92424",
"-	c #E90000",
";	c #DA0000",
">	c #CC0000",
",	c #BB0000",
"'	c #A22424",
")	c #ADA8A8",
"!	c #E40C0C",
"~	c #F00000",
"{	c #E70000",
"]	c #C80000",
"^	c #B30000",
"/	c #9B0C0C",
"(	c #ACA8A8",
"_	c #F80000",
":	c #E40000",
"<	c #D20000",
"[	c #BE0000",
"}	c #A60000",
"|	c #8D2424",
"1	c #B97878",
"2	c #F50000",
"3	c #FE0000",
"4	c #D90000",
"5	c #C40000",
"6	c #AC0000",
"7	c #920000",
"8	c #927878",
"9	c #CA3C3C",
"0	c #EA0000",
"a	c #DB0000",
"b	c #C60000",
"c	c #AE0000",
"d	c #940000",
"e	c #843C3C",
"f	c #FFFFFF",
"g	c #7D0C0C",
"h	c #8E0000",
"i	c #7A0000",
"j	c #9D0000",
"k	c #870000",
"l	c #780C0C",
"m	c #AF3C3C",
"n	c #A70000",
"o	c #7F0000",
"p	c #7A3C3C",
"q	c #AA0000",
"r	c #980000",
"s	c #860000",
"t	c #760000",
"u	c #8C7878",
"v	c #B40000",
"w	c #890000",
"x	c #732424",
"y	c #ADA9A9",
"z	c #700C0C",
"A	c #ABA9A9",
"B	c #ACA9A9",
"C	c #7E0C0C",
"D	c #7B0000",
"    .+@#$%&    ",
"  *=----;>,')  ",
" *!~~~~~{;]^/( ",
" =~_____~:<[}| ",
"1-2233332-45678",
"9022333320abcde",
"@-2ffffffff567g",
"<:~ffffffff[}hi",
"$;{~~~~~{;]^jkl",
"m>4:::::4>,n7op",
"&,]##aa#],qrstu",
" 'v[[bb[vnrwix ",
" y/}}cc}j7sizA ",
"  B|7777kotxA  ",
"    8eCDlpu    "};
