/* XPM */
static char * graph_xpm[] = {
"15 15 62 1",
" 	c None",
".	c #8D8D8D",
"+	c #6B6B6B",
"@	c #535353",
"#	c #444444",
"$	c #393939",
"%	c #343434",
"&	c #A6A6A6",
"*	c #838383",
"=	c #646464",
"-	c #4D4D4D",
";	c #3C3C3C",
">	c #353535",
",	c #404040",
"'	c #515151",
")	c #666666",
"!	c #808080",
"~	c #959595",
"{	c #3B3B3B",
"]	c #868686",
"^	c #373737",
"/	c #424242",
"(	c #575757",
"_	c #717171",
":	c #949494",
"<	c #737373",
"[	c #8B8B8B",
"}	c #777777",
"|	c #474747",
"1	c #8A8A8A",
"2	c #3E3E3E",
"3	c #6A6A6A",
"4	c #494949",
"5	c #5D5D5D",
"6	c #828282",
"7	c #929292",
"8	c #9C9C9C",
"9	c #A3A3A3",
"0	c #5A5A5A",
"a	c #3F3F3F",
"b	c #545454",
"c	c #4C4C4C",
"d	c #ABABAB",
"e	c #3A3A3A",
"f	c #333333",
"g	c #5C5C5C",
"h	c #AAAAAA",
"i	c #363636",
"j	c #878787",
"k	c #6C6C6C",
"l	c #414141",
"m	c #606060",
"n	c #434343",
"o	c #A8A8A8",
"p	c #7E7E7E",
"q	c #454545",
"r	c #585858",
"s	c #7B7B7B",
"t	c #8C8C8C",
"u	c #3D3D3D",
"v	c #656565",
"w	c #383838",
"       .+@#$%%%",
" &*=-;>>>>>>>>;",
";>>>>>>,')!~{>]",
"%^/(_:     <>/ ",
"%[         />} ",
"%|        1%$  ",
"2>3       4%5  ",
"6>>7     8>>9  ",
" 0%a     b%c   ",
" defg   h>>:   ",
"  ]iij  k%l    ",
"   m%no 2>p    ",
"   dq%rs>a     ",
"    t>>u%3     ",
"     vffwd     "};
