/* XPM */
static char * graph_xpm[] = {
"15 15 70 1",
" 	g #C0C0C0",
".	g #B0B0B0",
"+	g #8D8D8D",
"@	g #6B6B6B",
"#	g #535353",
"$	g #444444",
"%	g #393939",
"&	g #343434",
"*	g #BCBCBC",
"=	g #A6A6A6",
"-	g #838383",
";	g #646464",
">	g #4D4D4D",
",	g #3C3C3C",
"'	g #353535",
")	g #404040",
"!	g #515151",
"~	g #666666",
"{	g #808080",
"]	g #959595",
"^	g #3B3B3B",
"/	g #868686",
"(	g #373737",
"_	g #424242",
":	g #575757",
"<	g #717171",
"[	g #949494",
"}	g #B5B5B5",
"|	g #737373",
"1	g #B7B7B7",
"2	g #8B8B8B",
"3	g #BABABA",
"4	g #777777",
"5	g #474747",
"6	g #8A8A8A",
"7	g #3E3E3E",
"8	g #6A6A6A",
"9	g #494949",
"0	g #5D5D5D",
"a	g #828282",
"b	g #929292",
"c	g #9C9C9C",
"d	g #A3A3A3",
"e	g #5A5A5A",
"f	g #3F3F3F",
"g	g #B4B4B4",
"h	g #545454",
"i	g #4C4C4C",
"j	g #BEBEBE",
"k	g #ABABAB",
"l	g #3A3A3A",
"m	g #333333",
"n	g #5C5C5C",
"o	g #AAAAAA",
"p	g #363636",
"q	g #878787",
"r	g #6C6C6C",
"s	g #414141",
"t	g #606060",
"u	g #434343",
"v	g #A8A8A8",
"w	g #B3B3B3",
"x	g #7E7E7E",
"y	g #454545",
"z	g #585858",
"A	g #7B7B7B",
"B	g #8C8C8C",
"C	g #3D3D3D",
"D	g #656565",
"E	g #383838",
"      .+@#$%&&&",
"*=-;>,'''''''',",
",'''''')!~{]^'/",
"&(_:<[}    |'_1",
"&2        3_'4 ",
"&5.       6&%. ",
"7'8       9&0  ",
"a''b     c''d  ",
"*e&fg    h&ijjj",
"jklmn3  o''[   ",
"  /ppq  r&s    ",
"   t&uvw7'x    ",
"   ky&zA'fg    ",
"    B''C&8     ",
"    *DmmEk     "};
