/* XPM */
static char * node_xpm[] = {
"15 15 68 1",
" 	c None",
".	c #BA7878",
"+	c #CA3B3B",
"@	c #D60C0C",
"#	c #D30000",
"$	c #C60C0C",
"%	c #AF3B3B",
"&	c #A17878",
"*	c #B5A8A8",
"=	c #D92424",
"-	c #E90000",
";	c #DA0000",
">	c #CC0000",
",	c #BB0000",
"'	c #A22424",
")	c #ADA8A8",
"!	c #E40C0C",
"~	c #F00000",
"{	c #E70000",
"]	c #C80000",
"^	c #B30000",
"/	c #9B0C0C",
"(	c #ACA8A8",
"_	c #F80000",
":	c #E40000",
"<	c #D20000",
"[	c #BE0000",
"}	c #A60000",
"|	c #8D2424",
"1	c #B97878",
"2	c #F50000",
"3	c #FE0000",
"4	c #D90000",
"5	c #C40000",
"6	c #AC0000",
"7	c #920000",
"8	c #927878",
"9	c #CA3C3C",
"0	c #EA0000",
"a	c #DB0000",
"b	c #C60000",
"c	c #AE0000",
"d	c #940000",
"e	c #843C3C",
"f	c #7D0C0C",
"g	c #8E0000",
"h	c #7A0000",
"i	c #9D0000",
"j	c #870000",
"k	c #780C0C",
"l	c #AF3C3C",
"m	c #A70000",
"n	c #7F0000",
"o	c #7A3C3C",
"p	c #AA0000",
"q	c #980000",
"r	c #860000",
"s	c #760000",
"t	c #8C7878",
"u	c #B40000",
"v	c #890000",
"w	c #732424",
"x	c #ADA9A9",
"y	c #700C0C",
"z	c #ABA9A9",
"A	c #ACA9A9",
"B	c #7E0C0C",
"C	c #7B0000",
"    .+@#$%&    ",
"  *=----;>,')  ",
" *!~~~~~{;]^/( ",
" =~_____~:<[}| ",
"1-2233332-45678",
"9022333320abcde",
"@-2233332-4567f",
"<:~_____~:<[}gh",
"$;{~~~~~{;]^ijk",
"l>4:::::4>,m7no",
"&,]##aa#],pqrst",
" 'u[[bb[umqvhw ",
" x/}}cc}i7rhyz ",
"  A|7777jnswz  ",
"    8eBCkot    "};
