/* XPM */
static char * roads_xpm[] = {
"15 15 72 1",
" 	g #C0C0C0",
".	g #B0B0B0",
"+	g #8D8D8D",
"@	g #6B6B6B",
"#	g #535353",
"$	g #444444",
"%	g #393939",
"&	g #343434",
"*	g #BCBCBC",
"=	g #A6A6A6",
"-	g #838383",
";	g #646464",
">	g #4D4D4D",
",	g #3C3C3C",
"'	g #353535",
")	g #3B3B3B",
"!	g #404040",
"~	g #484848",
"{	g #414141",
"]	g #828282",
"^	g #373737",
"/	g #424242",
"(	g #4B4B4B",
"_	g #8E8E8E",
":	g #B5B5B5",
"<	g #A3A3A3",
"[	g #3F3F3F",
"}	g #777777",
"|	g #8B8B8B",
"1	g #6A6A6A",
"2	g #808080",
"3	g #9D9D9D",
"4	g #4E4E4E",
"5	g #999999",
"6	g #656565",
"7	g #737373",
"8	g #474747",
"9	g #AEAEAE",
"0	g #616161",
"a	g #5E5E5E",
"b	g #818181",
"c	g #383838",
"d	g #3E3E3E",
"e	g #333333",
"f	g #A2A2A2",
"g	g #929292",
"h	g #9F9F9F",
"i	g #606060",
"j	g #717171",
"k	g #A0A0A0",
"l	g #5A5A5A",
"m	g #4C4C4C",
"n	g #505050",
"o	g #545454",
"p	g #4A4A4A",
"q	g #BDBDBD",
"r	g #ABABAB",
"s	g #3A3A3A",
"t	g #525252",
"u	g #BABABA",
"v	g #868686",
"w	g #363636",
"x	g #878787",
"y	g #434343",
"z	g #A8A8A8",
"A	g #B3B3B3",
"B	g #5F5F5F",
"C	g #454545",
"D	g #585858",
"E	g #7F7F7F",
"F	g #8C8C8C",
"G	g #3D3D3D",
"      .+@#$%&&&",
"*=-;>,'''''''')",
")''''''!~{~-,']",
"&^/(~_: <[;}'{:",
"&|  12 3456,'7 ",
"&8. 90+a3 b&c9 ",
"d'1  2ef  >&a  ",
"]''ghiij k''h  ",
"*l&,mh n5o&pq  ",
" rsetu fl''g   ",
"  vwwx  ne/    ",
"   i&yzA)eB    ",
"   rC&DE'dp    ",
"    F''G&1     ",
"    *6ee^z     "};
