/* XPM */
static char * roads_xpm[] = {
"15 15 71 1",
" 	c None",
".	c #8D8D8D",
"+	c #6B6B6B",
"@	c #535353",
"#	c #444444",
"$	c #393939",
"%	c #343434",
"&	c #A6A6A6",
"*	c #838383",
"=	c #646464",
"-	c #4D4D4D",
";	c #3C3C3C",
">	c #353535",
",	c #3B3B3B",
"'	c #404040",
")	c #484848",
"!	c #414141",
"~	c #828282",
"{	c #373737",
"]	c #424242",
"^	c #4B4B4B",
"/	c #8E8E8E",
"(	c #B5B5B5",
"_	c #C0C0C0",
":	c #A3A3A3",
"<	c #3F3F3F",
"[	c #777777",
"}	c #8B8B8B",
"|	c #6A6A6A",
"1	c #808080",
"2	c #9D9D9D",
"3	c #4E4E4E",
"4	c #999999",
"5	c #656565",
"6	c #737373",
"7	c #474747",
"8	c #B0B0B0",
"9	c #AEAEAE",
"0	c #616161",
"a	c #5E5E5E",
"b	c #818181",
"c	c #383838",
"d	c #3E3E3E",
"e	c #333333",
"f	c #A2A2A2",
"g	c #929292",
"h	c #9F9F9F",
"i	c #606060",
"j	c #717171",
"k	c #A0A0A0",
"l	c #5A5A5A",
"m	c #4C4C4C",
"n	c #505050",
"o	c #545454",
"p	c #4A4A4A",
"q	c #ABABAB",
"r	c #3A3A3A",
"s	c #525252",
"t	c #BABABA",
"u	c #868686",
"v	c #363636",
"w	c #878787",
"x	c #434343",
"y	c #A8A8A8",
"z	c #B3B3B3",
"A	c #5F5F5F",
"B	c #454545",
"C	c #585858",
"D	c #7F7F7F",
"E	c #8C8C8C",
"F	c #3D3D3D",
"       .+@#$%%%",
" &*=-;>>>>>>>>,",
",>>>>>>')!)*;>~",
"%{]^)/(_:<=[>! ",
"%}__|1_2345;>6 ",
"%78_90.a2_b%c  ",
"d>|__1ef__-%a  ",
"~>>ghiij_k>>h  ",
" l%;mh_n4o%p   ",
" qrest_fl>>g   ",
"  uvvw__ne]    ",
"   i%xyz,eA    ",
"   qB%CD>dp    ",
"    E>>F%|     ",
"     5ee{y     "};
