/* XPM */
static char * select_xpm[] = {
"15 15 4 1",
" 	c None",
".	c #BFBFBF",
"+	c #000000",
"@	c #FFFFFF",
"...+...........",
"...++..........",
"...+@+.........",
"...+@@+........",
"...+@@@+.......",
"...+@@@@+......",
"...+@@@@@+.....",
"...+@@@@@@+....",
"...+@@@@@@@+...",
"...+@@@@@++++..",
"...+@++@@+.....",
"...++.+@@+.....",
"...+...+@@+....",
".......+@@+....",
"........++....."};
