/* XPM */
static char * terr_xpm[] = {
"15 15 162 2",
"  	c None",
". 	c #DFDFDF",
"+ 	c #FFFFFF",
"@ 	c #F9F5F9",
"# 	c #F4F4F4",
"$ 	c #E4E0E0",
"% 	c #DDDBDE",
"& 	c #DCDCDC",
"* 	c #F6F6F6",
"= 	c #B3A3A5",
"- 	c #A99DA1",
"; 	c #DAD4D8",
"> 	c #E1DEE0",
", 	c #E1E1E1",
"' 	c #FBFBFB",
") 	c #CCBBBD",
"! 	c #806F71",
"~ 	c #8A787A",
"{ 	c #B7A7A9",
"] 	c #D8C4C6",
"^ 	c #DCD4D2",
"/ 	c #E1D3D6",
"( 	c #FFE4DA",
"_ 	c #AF9898",
": 	c #968486",
"< 	c #968482",
"[ 	c #715F5D",
"} 	c #5B4C51",
"| 	c #947C82",
"1 	c #D6C7C2",
"2 	c #B2ACAB",
"3 	c #B8A49B",
"4 	c #E4C3B4",
"5 	c #F7CEC1",
"6 	c #B3887E",
"7 	c #6D4844",
"8 	c #785957",
"9 	c #7C695F",
"0 	c #483A30",
"a 	c #3A2628",
"b 	c #6D5357",
"c 	c #8A6B67",
"d 	c #896A65",
"e 	c #AB9D9C",
"f 	c #BCA595",
"g 	c #C3A285",
"h 	c #C8A788",
"i 	c #CCA390",
"j 	c #B58A7E",
"k 	c #7E554A",
"l 	c #4C2A1F",
"m 	c #3A1B13",
"n 	c #51382C",
"o 	c #8A6F63",
"p 	c #907369",
"q 	c #462E28",
"r 	c #250F0B",
"s 	c #614A46",
"t 	c #B39E7F",
"u 	c #C19F7B",
"v 	c #CAA57E",
"w 	c #C8A17A",
"x 	c #D0AD90",
"y 	c #C3A38E",
"z 	c #755742",
"A 	c #250B00",
"B 	c #3A1D0B",
"C 	c #A38265",
"D 	c #E4C39C",
"E 	c #AD9676",
"F 	c #423023",
"G 	c #0F0000",
"H 	c #280B0B",
"I 	c #AB955B",
"J 	c #B99868",
"K 	c #C8A173",
"L 	c #D6B182",
"M 	c #D0BB8C",
"N 	c #988465",
"O 	c #482E19",
"P 	c #3E2611",
"Q 	c #9D8661",
"R 	c #F9D8A1",
"S 	c #EBCA90",
"T 	c #9A8659",
"U 	c #574D36",
"V 	c #2C231B",
"W 	c #0B0000",
"X 	c #AD9F60",
"Y 	c #A99455",
"Z 	c #B79D5F",
"` 	c #BBA769",
" .	c #988C53",
"..	c #5B4D25",
"+.	c #4A3417",
"@.	c #8C754C",
"#.	c #E6D696",
"$.	c #FFEFA7",
"%.	c #C8B77C",
"&.	c #766542",
"*.	c #402E1F",
"=.	c #1D1105",
"-.	c #000000",
";.	c #AEA97E",
">.	c #A29A56",
",.	c #A59D4F",
"'.	c #828032",
").	c #4D480F",
"!.	c #534417",
"~.	c #8C7544",
"{.	c #BDA96B",
"].	c #D6C37E",
"^.	c #D8CC8A",
"/.	c #C3B57C",
"(.	c #786538",
"_.	c #0D0000",
":.	c #B6B5A9",
"<.	c #B3B182",
"[.	c #A49F59",
"}.	c #615E16",
"|.	c #454002",
"1.	c #807528",
"2.	c #B3A953",
"3.	c #A9A353",
"4.	c #9F9A55",
"5.	c #BDAF6F",
"6.	c #C8B973",
"7.	c #80712A",
"8.	c #010000",
"9.	c #261B00",
"0.	c #B0AD97",
"a.	c #807D5D",
"b.	c #807D3E",
"c.	c #A0A03F",
"d.	c #A3A13C",
"e.	c #928C38",
"f.	c #9A8E42",
"g.	c #B1A351",
"h.	c #AB9F48",
"i.	c #71671B",
"j.	c #231700",
"k.	c #190900",
"l.	c #6D5D30",
"m.	c #BEBEA9",
"n.	c #AFB179",
"o.	c #979A46",
"p.	c #9E9E3D",
"q.	c #AFA544",
"r.	c #A19332",
"s.	c #7F741A",
"t.	c #554D0E",
"u.	c #3A3405",
"v.	c #5A4C1B",
"w.	c #B1A786",
"x.	c #B4B59A",
"y.	c #C2C284",
"z.	c #BFBA66",
"A.	c #968B2C",
"B.	c #675F07",
"C.	c #444200",
"D.	c #504D1B",
"E.	c #949074",
"              . + @           ",
"              # + $ %         ",
"          & * + = - ; >       ",
"        , ' + ) ! ~ { ] ^     ",
"      / ' ( _ : < [ } |   1   ",
"  2 3 4 5 6 7 8 9 0 a b c d e ",
"  f g h i j k l m n o p q r s ",
"t u v w x y z A B C D E F G H ",
"I J K L M N O P Q R S T U V W ",
"X Y Z `  ...+.@.#.$.%.&.*.=.-.",
";.>.,.'.).!.~.{.].^./.(._.-.-.",
":.<.[.}.|.1.2.3.4.5.6.7.8.-.9.",
"    0.a.b.c.d.e.f.g.h.i.j.k.l.",
"        m.n.o.p.q.r.s.t.u.v.w.",
"            x.y.z.A.B.C.D.E.  "};
