/* XPM */
static char * view_xpm[] = {
"15 15 57 1",
" 	c None",
".	c #A4A4A4",
"+	c #9E9E9E",
"@	c #9B9B9B",
"#	c #555555",
"$	c #393939",
"%	c #A7A7A7",
"&	c #888888",
"*	c #4A4A4A",
"=	c #353535",
"-	c #525252",
";	c #7C7C7C",
">	c #414141",
",	c #545454",
"'	c #8F8F8F",
")	c #666666",
"!	c #343434",
"~	c #303030",
"{	c #626262",
"]	c #A0A0A0",
"^	c #5C5C5C",
"/	c #373737",
"(	c #333333",
"_	c #3C3C3C",
":	c #1D1D1D",
"<	c #070707",
"[	c #575757",
"}	c #363636",
"|	c #3E3E3E",
"1	c #B9B9B9",
"2	c #000000",
"3	c #535353",
"4	c #444444",
"5	c #5A5A5A",
"6	c #B6B6B6",
"7	c #C0C0C0",
"8	c #949494",
"9	c #494949",
"0	c #404040",
"a	c #787878",
"b	c #606060",
"c	c #080808",
"d	c #ADADAD",
"e	c #595959",
"f	c #2F2F2F",
"g	c #171717",
"h	c #8B8B8B",
"i	c #424242",
"j	c #4D4D4D",
"k	c #656565",
"l	c #3B3B3B",
"m	c #737373",
"n	c #979797",
"o	c #7D7D7D",
"p	c #757575",
"q	c #4E4E4E",
"r	c #898989",
"            .+ ",
"          @#$$%",
"        &*===- ",
"      ;>===,'  ",
"    )$!!~{.    ",
" ]^/((_:<      ",
"[}}}|;1223     ",
"4((5677223     ",
"89==087223     ",
"  a}}}bc2      ",
"   de==fg      ",
"     hi((j.    ",
"       k==lm   ",
"        n9==o  ",
"          pqr  "};
