/* XPM */
static char * view_xpm[] = {
"15 15 61 1",
" 	g #C0C0C0",
".	g #A4A4A4",
"+	g #9E9E9E",
"@	g #BABABA",
"#	g #9B9B9B",
"$	g #555555",
"%	g #393939",
"&	g #A7A7A7",
"*	g #B7B7B7",
"=	g #888888",
"-	g #4A4A4A",
";	g #353535",
">	g #525252",
",	g #ADADAD",
"'	g #7C7C7C",
")	g #414141",
"!	g #545454",
"~	g #8F8F8F",
"{	g #B0B0B0",
"]	g #666666",
"^	g #343434",
"/	g #303030",
"(	g #626262",
"_	g #A0A0A0",
":	g #5C5C5C",
"<	g #373737",
"[	g #333333",
"}	g #3C3C3C",
"|	g #1D1D1D",
"1	g #070707",
"2	g #575757",
"3	g #363636",
"4	g #3E3E3E",
"5	g #B9B9B9",
"6	g #000000",
"7	g #535353",
"8	g #444444",
"9	g #5A5A5A",
"0	g #B6B6B6",
"a	g #949494",
"b	g #494949",
"c	g #404040",
"d	g #787878",
"e	g #606060",
"f	g #080808",
"g	g #595959",
"h	g #2F2F2F",
"i	g #171717",
"j	g #BCBCBC",
"k	g #8B8B8B",
"l	g #424242",
"m	g #4D4D4D",
"n	g #B3B3B3",
"o	g #656565",
"p	g #3B3B3B",
"q	g #737373",
"r	g #979797",
"s	g #7D7D7D",
"t	g #757575",
"u	g #4E4E4E",
"v	g #898989",
"            .+@",
"          #$%%&",
"       *=-;;;>,",
"     *');;;!~@ ",
"   {]%^^/(.    ",
" _:<[[}|1      ",
"23334'5667     ",
"8[[90  667     ",
"ab;;ca 667     ",
"  d333ef6      ",
"   ,g;;hi@     ",
"    jkl[[m.    ",
"      no;;pqn  ",
"        rb;;s  ",
"         ntuv  "};
